<svg width="31" height="36" viewBox="0 0 31 36" fill="none" xmlns="http://www.w3.org/2000/svg">
<path d="M30.2569 20.0011L15.1284 35.1295L0 20.0011L2.59875 17.4023L7.47141 22.2982C8.44594 23.2727 9.43594 24.2937 10.4414 25.361C11.4623 26.4284 12.4446 27.4725 13.3882 28.4934C13.3573 27.7819 13.3263 27.0703 13.2954 26.3588C13.2799 25.6472 13.2722 24.9356 13.2722 24.2241V0H16.9847V24.2241C16.9847 24.9356 16.9692 25.6472 16.9383 26.3588C16.9228 27.0703 16.8996 27.7819 16.8687 28.4934C17.8123 27.4725 18.7868 26.4284 19.7923 25.361C20.8132 24.2937 21.8109 23.2727 22.7855 22.2982L27.6581 17.4023L30.2569 20.0011Z" fill="white"/>
</svg>
