<svg width="20" height="23" viewBox="0 0 20 23" fill="none" xmlns="http://www.w3.org/2000/svg">
<path fill-rule="evenodd" clip-rule="evenodd" d="M15.258 10.5231C15.3611 10.5669 15.4628 10.6126 15.5629 10.6601C16.9783 11.3318 18.0134 12.349 18.5563 13.6013C19.313 15.3476 19.3821 18.1923 17.0862 20.4617C15.3313 22.1964 13.201 22.9793 10.1789 23H10.1653C6.76598 22.9768 4.15199 21.845 2.39591 19.6364C0.833241 17.6709 0.0271697 14.9361 8.4754e-05 11.5081L0 11.5L8.4754e-05 11.4919C0.0271697 8.06386 0.833241 5.3291 2.39591 3.36367C4.15199 1.15501 6.76598 0.0232959 10.1653 0H10.1789C13.5851 0.0233771 16.2287 1.1508 18.0363 3.35105C18.9281 4.43657 19.5835 5.74547 20 7.26443L18.045 7.7805C17.7014 6.54647 17.1801 5.48809 16.4888 4.64648C15.0788 2.93027 12.9538 2.04979 10.1721 2.02933C7.41039 2.04964 5.3218 2.9259 3.96383 4.63386C2.69221 6.23319 2.03503 8.54328 2.01051 11.5C2.03503 14.4567 2.69221 16.7668 3.96383 18.3661C5.3218 20.0741 7.41043 20.9504 10.1721 20.9706C12.6618 20.9525 14.3091 20.3665 15.6796 19.0119C17.2438 17.4656 17.2146 15.569 16.7143 14.4148C16.4201 13.7358 15.8874 13.171 15.1685 12.7418C14.9935 14.0328 14.5969 15.0573 13.97 15.848C13.1445 16.8891 11.9612 17.4584 10.4529 17.5403C9.31071 17.6019 8.21174 17.3294 7.35846 16.7722C6.34925 16.1129 5.75861 15.1038 5.69542 13.9308C5.57089 11.6183 7.42502 9.95414 10.3091 9.78977C11.3329 9.7317 12.2907 9.77748 13.1762 9.92639C13.0586 9.21497 12.8212 8.65127 12.4662 8.24334C11.9784 7.68303 11.2247 7.39571 10.2259 7.38941L10.1982 7.38933C9.39621 7.38933 8.30729 7.61136 7.61345 8.65289L5.94513 7.5206C6.87392 6.12625 8.38294 5.35999 10.1974 5.35999L10.2385 5.36008C13.272 5.37924 15.0786 7.25197 15.258 10.5231ZM7.70288 13.8206C7.76763 15.023 9.08084 15.5843 10.3449 15.5139C11.5825 15.4467 12.9872 14.9662 13.2267 12.0071C12.5846 11.8682 11.8784 11.7956 11.1235 11.7956C10.894 11.7956 10.6605 11.8023 10.4225 11.8159C8.34413 11.9344 7.65488 12.9291 7.70288 13.8206Z" fill="#B9B9B9"/>
</svg>
