<svg width="59" height="59" viewBox="0 0 59 59" fill="none" xmlns="http://www.w3.org/2000/svg">
<path fill-rule="evenodd" clip-rule="evenodd" d="M0 58.3491C1.5843 53.2341 3.4206 48.3711 5.0994 43.3509C-6.0291 23.8875 7.743 1.97643 26.3967 0.156334C44.0088 -1.56237 58.449 11.088 58.4928 28.3527C58.5387 46.5696 40.8708 61.8666 20.9973 55.6491C19.4982 55.1802 17.6433 53.652 15.8979 53.5494C13.4586 53.4057 10.2618 55.1571 7.7988 55.9491C5.0991 56.8176 2.7516 57.6879 0 58.3491ZM16.4979 48.1503C32.5464 57.8901 51.7632 46.9656 53.3934 31.0524C54.8688 16.6467 43.3662 3.82893 27.8964 4.95573C10.2354 6.24183 -0.373199 27.3234 10.4985 42.7509C9.5361 45.3882 8.6355 48.0873 7.7988 50.85C10.7454 49.9968 13.4616 48.9135 16.4979 48.1503Z" fill="black"/>
<path fill-rule="evenodd" clip-rule="evenodd" d="M7.79881 50.8501C8.63551 48.0874 9.5361 45.3883 10.4985 42.751C-0.373496 27.3235 10.2354 6.24195 27.8964 4.95585C43.3662 3.82905 54.8688 16.6468 53.3934 31.0525C51.7632 46.9654 32.5464 57.8899 16.4979 48.1504C13.4613 48.9136 10.7451 49.9969 7.79881 50.8501ZM15.8979 25.3534C18.4713 32.5912 29.1357 42.3943 36.8952 42.7513C40.5732 42.9205 44.9217 41.0125 44.694 35.8522C42.4794 34.2673 39.9264 33.0208 37.1952 31.9528C35.8878 33.2449 34.8603 34.8172 33.2955 35.8522C28.59 33.7585 24.9804 30.5692 22.797 25.9534C27.0963 23.6086 24.4851 18.3856 22.797 14.8546C16.1271 12.8449 14.3709 21.0589 15.8979 25.3534Z" fill="white"/>
<path fill-rule="evenodd" clip-rule="evenodd" d="M22.7996 14.8543C24.4877 18.3853 27.0989 23.608 22.7996 25.9531C24.983 30.5689 28.5929 33.7582 33.2981 35.8519C34.8629 34.8169 35.8904 33.2446 37.1978 31.9525C39.929 33.0208 42.482 34.267 44.6966 35.8519C44.9243 41.0122 40.5758 42.9205 36.8978 42.751C29.1383 42.394 18.4736 32.5909 15.9005 25.3531C14.3735 21.0586 16.1297 12.8446 22.7996 14.8543Z" fill="black"/>
</svg>
